<svg width="108" height="108" viewBox="0 0 108 108" fill="none" xmlns="http://www.w3.org/2000/svg">
<rect width="108" height="108" rx="54" fill="#F0F0F0"/>
<mask id="mask0_862_31" style="mask-type:alpha" maskUnits="userSpaceOnUse" x="0" y="0" width="108" height="108">
<rect width="108" height="108" fill="#D9D9D9"/>
</mask>
<g mask="url(#mask0_862_31)">
<path d="M36 52.6C34.32 52.6 32.9 52.02 31.74 50.86C30.58 49.7 30 48.28 30 46.6C30 44.92 30.58 43.5 31.74 42.34C32.9 41.18 34.32 40.6 36 40.6C37.68 40.6 39.1 41.18 40.26 42.34C41.42 43.5 42 44.92 42 46.6C42 48.28 41.42 49.7 40.26 50.86C39.1 52.02 37.68 52.6 36 52.6ZM46.8 43C45.12 43 43.7 42.42 42.54 41.26C41.38 40.1 40.8 38.68 40.8 37C40.8 35.32 41.38 33.9 42.54 32.74C43.7 31.58 45.12 31 46.8 31C48.48 31 49.9 31.58 51.06 32.74C52.22 33.9 52.8 35.32 52.8 37C52.8 38.68 52.22 40.1 51.06 41.26C49.9 42.42 48.48 43 46.8 43ZM61.2 43C59.52 43 58.1 42.42 56.94 41.26C55.78 40.1 55.2 38.68 55.2 37C55.2 35.32 55.78 33.9 56.94 32.74C58.1 31.58 59.52 31 61.2 31C62.88 31 64.3 31.58 65.46 32.74C66.62 33.9 67.2 35.32 67.2 37C67.2 38.68 66.62 40.1 65.46 41.26C64.3 42.42 62.88 43 61.2 43ZM72 52.6C70.32 52.6 68.9 52.02 67.74 50.86C66.58 49.7 66 48.28 66 46.6C66 44.92 66.58 43.5 67.74 42.34C68.9 41.18 70.32 40.6 72 40.6C73.68 40.6 75.1 41.18 76.26 42.34C77.42 43.5 78 44.92 78 46.6C78 48.28 77.42 49.7 76.26 50.86C75.1 52.02 73.68 52.6 72 52.6ZM41.16 76.6C39.36 76.6 37.85 75.91 36.63 74.53C35.41 73.15 34.8 71.52 34.8 69.64C34.8 67.56 35.51 65.74 36.93 64.18C38.35 62.62 39.76 61.08 41.16 59.56C42.32 58.32 43.32 56.97 44.16 55.51C45 54.05 46 52.68 47.16 51.4C48.04 50.36 49.06 49.5 50.22 48.82C51.38 48.14 52.64 47.8 54 47.8C55.36 47.8 56.62 48.12 57.78 48.76C58.94 49.4 59.96 50.24 60.84 51.28C61.96 52.56 62.95 53.94 63.81 55.42C64.67 56.9 65.68 58.28 66.84 59.56C68.24 61.08 69.65 62.62 71.07 64.18C72.49 65.74 73.2 67.56 73.2 69.64C73.2 71.52 72.59 73.15 71.37 74.53C70.15 75.91 68.64 76.6 66.84 76.6C64.68 76.6 62.54 76.42 60.42 76.06C58.3 75.7 56.16 75.52 54 75.52C51.84 75.52 49.7 75.7 47.58 76.06C45.46 76.42 43.32 76.6 41.16 76.6Z" fill="#2867E4"/>
</g>
</svg>
